<svg width="12" height="12" viewBox="0 0 12 12" fill="none" xmlns="http://www.w3.org/2000/svg">
<path d="M10.9652 4.97648L10.6843 4.31789L10.1861 3.15C9.75848 2.14758 8.73848 1.5 7.587 1.5H4.41277C3.26155 1.5 2.2413 2.14758 1.81365 3.15L1.31552 4.31789L1.03459 4.97648C0.431738 5.19141 0.00134277 5.73422 0.00134277 6.375V7.5C0.00134277 7.87781 0.155305 8.21883 0.401246 8.48273V9.75C0.401246 10.1641 0.759409 10.5 1.20105 10.5H2.00086C2.4425 10.5 2.80066 10.1641 2.80066 9.75V9H9.19911V9.75C9.19911 10.1641 9.55728 10.5 9.99892 10.5H10.7987C11.2404 10.5 11.5985 10.1641 11.5985 9.75V8.48273C11.8445 8.21906 11.9984 7.87805 11.9984 7.5V6.375C11.9984 5.73422 11.568 5.19141 10.9652 4.97648ZM3.29879 3.70711C3.481 3.28008 3.92214 3 4.41277 3H7.587C8.07764 3 8.51878 3.28008 8.70098 3.70711L9.19911 4.875H2.80066L3.29879 3.70711ZM2.00086 7.49531C1.52097 7.49531 1.20105 7.19625 1.20105 6.74766C1.20105 6.29906 1.52097 6 2.00086 6C2.48074 6 3.20057 6.67289 3.20057 7.12148C3.20057 7.57008 2.48074 7.49531 2.00086 7.49531ZM9.99892 7.49531C9.51904 7.49531 8.79921 7.57008 8.79921 7.12148C8.79921 6.67289 9.51904 6 9.99892 6C10.4788 6 10.7987 6.29906 10.7987 6.74766C10.7987 7.19625 10.4788 7.49531 9.99892 7.49531Z" fill="#FA824C"/>
</svg>
